<svg width="16" height="16" xmlns="http://www.w3.org/2000/svg"><path d="M14.927 3.984A7.827 7.827 0 0 1 16 8c0 1.451-.358 2.79-1.073 4.016a7.965 7.965 0 0 1-2.911 2.911A7.825 7.825 0 0 1 8 16a7.825 7.825 0 0 1-4.016-1.073 7.966 7.966 0 0 1-2.911-2.911A7.827 7.827 0 0 1 0 8c0-1.451.358-2.79 1.073-4.016a7.963 7.963 0 0 1 2.912-2.911A7.825 7.825 0 0 1 8 0a7.83 7.83 0 0 1 4.016 1.073 7.966 7.966 0 0 1 2.911 2.911zM7.506 9.702l-2.454-2.06a1 1 0 0 0-1.286 1.533l3.064 2.571a.999.999 0 0 0 .282.167 1 1 0 0 0 1.338-.199l4.405-5.44A1 1 0 1 0 11.3 5.015L7.506 9.702z" fill-rule="evenodd"/></svg>