<?xml version="1.0" encoding="UTF-8"?>
<svg width="16px" height="16px" viewBox="0 0 16 16" version="1.1" xmlns="http://www.w3.org/2000/svg" xmlns:xlink="http://www.w3.org/1999/xlink">
    <!-- Generator: Sketch 52.3 (67297) - http://www.bohemiancoding.com/sketch -->
    <title>Group 2</title>
    <desc>Created with Sketch.</desc>
    <g id="Symbols" stroke="none" stroke-width="1" fill="none" fill-rule="evenodd">
        <g id="UI-element-/-Icons-/-Plus" fill="#5B616A">
            <g id="Group" transform="translate(-1.000000, -1.000000)">
                <g id="Group-2">
                    <path d="M3.38173443,3.30461119 L3.38173443,3.30461119 C3.98715037,2.69070182 4.97560883,2.68381653 5.5895182,3.28923247 C5.59462493,3.29426855 5.5996969,3.29933976 5.60473374,3.30444574 L14.6180978,12.4415384 C15.2344711,13.0663728 15.2345458,14.0704627 14.6182656,14.6953888 L14.6182656,14.6953888 C14.0128496,15.3092982 13.0243912,15.3161835 12.4104818,14.7107675 C12.4053751,14.7057315 12.4003031,14.7006602 12.3952663,14.6955543 L3.38190217,5.5584616 C2.76552891,4.93362724 2.76545418,3.92953728 3.38173443,3.30461119 Z" id="Combined-Shape" transform="translate(9.000000, 9.000000) rotate(-315.000000) translate(-9.000000, -9.000000) "></path>
                    <path d="M3.38173443,3.30461119 L3.38173443,3.30461119 C3.98715037,2.69070182 4.97560883,2.68381653 5.5895182,3.28923247 C5.59462493,3.29426855 5.5996969,3.29933976 5.60473374,3.30444574 L14.6180978,12.4415384 C15.2344711,13.0663728 15.2345458,14.0704627 14.6182656,14.6953888 L14.6182656,14.6953888 C14.0128496,15.3092982 13.0243912,15.3161835 12.4104818,14.7107675 C12.4053751,14.7057315 12.4003031,14.7006602 12.3952663,14.6955543 L3.38190217,5.5584616 C2.76552891,4.93362724 2.76545418,3.92953728 3.38173443,3.30461119 Z" id="Combined-Shape-Copy" transform="translate(9.000000, 9.000000) rotate(-45.000000) translate(-9.000000, -9.000000) "></path>
                </g>
            </g>
        </g>
    </g>
</svg>