<svg width="16" height="16" xmlns="http://www.w3.org/2000/svg"><path d="M14 8.955v4.181A2.864 2.864 0 0 1 11.136 16H2.864A2.864 2.864 0 0 1 0 13.136V2.864A2.864 2.864 0 0 1 2.864 0h7c.179 0 .318.14.318.318v.637c0 .179-.14.318-.318.318h-7c-.875 0-1.591.716-1.591 1.59v10.273c0 .875.716 1.591 1.59 1.591h8.273c.875 0 1.591-.716 1.591-1.59V8.954c0-.18.14-.319.318-.319h.637c.179 0 .318.14.318.319zm2-6.377v4.625a.582.582 0 0 1-.578.578.575.575 0 0 1-.407-.171l-1.59-1.59-5.89 5.89a.311.311 0 0 1-.207.09.311.311 0 0 1-.208-.09l-1.03-1.03a.311.311 0 0 1-.09-.208c0-.072.036-.153.09-.208l5.89-5.89-1.59-1.59a.575.575 0 0 1-.171-.406c0-.316.262-.578.578-.578h4.625c.316 0 .578.262.578.578z" fill="#0071BC" fill-rule="evenodd"/></svg>