<svg width="16" height="16" xmlns="http://www.w3.org/2000/svg"><path d="M9.679 9.679C10.559 8.799 11 7.739 11 6.5c0-1.239-.44-2.299-1.321-3.18C8.799 2.44 7.739 2 6.5 2c-1.239 0-2.299.44-3.18 1.32C2.44 4.201 2 5.261 2 6.5s.44 2.299 1.32 3.179C4.201 10.559 5.261 11 6.5 11s2.299-.44 3.179-1.321zm5.965 4.226c.237.237.356.526.356.865 0 .334-.122.622-.366.865a1.181 1.181 0 0 1-.864.365c-.347 0-.635-.122-.866-.365l-3.298-3.288a6.583 6.583 0 0 1-3.836 1.192 6.64 6.64 0 0 1-2.63-.534 6.754 6.754 0 0 1-2.164-1.442A6.762 6.762 0 0 1 .534 9.4 6.65 6.65 0 0 1 0 6.77c0-.916.178-1.793.534-2.63a6.757 6.757 0 0 1 1.442-2.163A6.74 6.74 0 0 1 4.14.534 6.64 6.64 0 0 1 6.77 0c.917 0 1.795.177 2.63.534a6.751 6.751 0 0 1 2.164 1.443 6.774 6.774 0 0 1 1.442 2.163c.356.837.534 1.714.534 2.63a6.59 6.59 0 0 1-1.193 3.837l3.298 3.298z" fill="#0071BC" fill-rule="evenodd"/></svg>