<?xml version="1.0" encoding="UTF-8"?>
<svg width="16px" height="16px" viewBox="0 0 16 16" version="1.1" xmlns="http://www.w3.org/2000/svg" xmlns:xlink="http://www.w3.org/1999/xlink">
    <!-- Generator: Sketch 52.3 (67297) - http://www.bohemiancoding.com/sketch -->
    <title>Combined Shape</title>
    <desc>Created with Sketch.</desc>
    <g id="Symbols" stroke="none" stroke-width="1" fill="none" fill-rule="evenodd">
        <g id="UI-element-/-Icons-/-Close" fill="#5B616A">
            <path d="M10.8039574,7.97553023 L15.0710678,12.2426407 C15.8521164,13.0236893 15.8521164,14.2900192 15.0710678,15.0710678 C14.2900192,15.8521164 13.0236893,15.8521164 12.2426407,15.0710678 L8.02490061,10.8533277 L3.88141264,15.1440351 C3.11411419,15.9385959 1.8479771,15.9606965 1.0534163,15.193398 C0.258855492,14.4260996 0.236754987,13.1599625 1.00405344,12.3654017 L5.19604264,8.02446977 L0.928932188,3.75735931 C0.147883605,2.97631073 0.147883605,1.70998077 0.928932188,0.928932188 C1.70998077,0.147883605 2.97631073,0.147883605 3.75735931,0.928932188 L7.97509939,5.14667226 L12.1185874,0.855964856 C12.8858858,0.061404053 14.1520229,0.0393035479 14.9465837,0.806601997 C15.7411445,1.57390045 15.763245,2.84003753 14.9959466,3.63459834 L10.8039574,7.97553023 Z" id="Combined-Shape"></path>
        </g>
    </g>
</svg>